<?xml version="1.0" encoding="utf-8"?>
<!-- Generator: Adobe Illustrator 16.0.3, SVG Export Plug-In . SVG Version: 6.00 Build 0)  -->
<!DOCTYPE svg PUBLIC "-//W3C//DTD SVG 1.1//EN" "http://www.w3.org/Graphics/SVG/1.1/DTD/svg11.dtd">
<svg version="1.1" id="Layer_1" xmlns="http://www.w3.org/2000/svg" xmlns:xlink="http://www.w3.org/1999/xlink" x="0px" y="0px"
	 width="70px" height="31.539px" viewBox="0 19.229 70 31.539" enable-background="new 0 19.229 70 31.539" xml:space="preserve">
<title>cloud2</title>
<linearGradient id="SVGID_1_" gradientUnits="userSpaceOnUse" x1="35.0005" y1="50.623" x2="35.0005" y2="32.8085">
	<stop  offset="0" style="stop-color:#52BFA8;stop-opacity:0"/>
	<stop  offset="1" style="stop-color:#52BFA8"/>
</linearGradient>
<path fill="url(#SVGID_1_)" d="M70,28.853h-0.169c-3.038-2.828-7.604-3.241-11.101-1.002c-1.283-5.15-6.5-8.285-11.65-7.001
	c-3.074,0.766-5.572,2.999-6.68,5.967c-0.262-1.786-1.921-3.022-3.707-2.761c-0.422,0.062-0.827,0.205-1.194,0.422
	c-0.524-3.382-3.69-5.698-7.072-5.174c-1.856,0.288-3.481,1.401-4.419,3.029c-3.865-4.023-10.26-4.152-14.284-0.287
	c-0.104,0.1-0.206,0.202-0.305,0.307c-1.556-0.813-3.361-1.008-5.055-0.548C3.204,20.693,1.525,20.314,0,20.817v29.95h70V28.85
	V28.853z"/>
</svg>
